<svg xmlns="http://www.w3.org/2000/svg" xmlns:xlink="http://www.w3.org/1999/xlink" version="1.1" x="0px" y="0px" viewBox="0 0 64 80" enable-background="new 0 0 64 64" xml:space="preserve"><path d="M56.271,2.125H7.729c-3.09,0-5.604,2.514-5.604,5.604v48.542c0,3.09,2.514,5.604,5.604,5.604h48.542  c3.09,0,5.604-2.514,5.604-5.604V7.729C61.875,4.639,59.361,2.125,56.271,2.125z M33.509,41.253c0-0.414-0.336-0.75-0.75-0.75  H16.974V19.249h28.839v31.722H33.509V41.253z M3.625,40.503V19.249h11.849v21.254H3.625z M47.313,19.249h13.063v31.722H47.313  V19.249z M60.375,7.729v10.02H47.313V3.625h8.959C58.534,3.625,60.375,5.466,60.375,7.729z M7.729,3.625h38.083v14.124H3.625V7.729  C3.625,5.466,5.466,3.625,7.729,3.625z M3.625,56.271V42.003h28.384v9.718c0,0.414,0.336,0.75,0.75,0.75h13.054v7.904H7.729  C5.466,60.375,3.625,58.534,3.625,56.271z M56.271,60.375h-8.959v-7.904h13.063v3.801C60.375,58.534,58.534,60.375,56.271,60.375z"/><text x="0" y="79" fill="#000000" font-size="5px" font-weight="bold" font-family="'Helvetica Neue', Helvetica, Arial-Unicode, Arial, Sans-serif">Created by Adnen Kadri</text><text x="0" y="84" fill="#000000" font-size="5px" font-weight="bold" font-family="'Helvetica Neue', Helvetica, Arial-Unicode, Arial, Sans-serif">from the Noun Project</text></svg>